<?xml version="1.0" encoding="utf-8"?>
<!-- Generator: Adobe Illustrator 19.2.1, SVG Export Plug-In . SVG Version: 6.00 Build 0)  -->
<svg version="1.1" id="Réteg_1" xmlns="http://www.w3.org/2000/svg" xmlns:xlink="http://www.w3.org/1999/xlink" x="0px" y="0px"
	 viewBox="0 0 204.1 141.7" enable-background="new 0 0 204.1 141.7" xml:space="preserve">
<g>
	<polygon points="62.5,55.4 32.5,55.4 21.4,73.3 51.4,73.3 	"/>
	<polygon points="129.9,16.9 99.9,82 99.9,78.3 99.9,124.9 99.9,124.9 129.9,59.3 	"/>
	<polygon points="99.9,16.9 62,94.5 62,94.5 47.2,124.9 47.2,124.9 47.2,124.9 47.2,124.9 77.2,124.9 77.2,124.9 77.2,124.9 
		99.9,78.3 99.9,78.3 129.9,16.9 	"/>
	<polygon points="182.7,16.9 152.7,16.9 126,71.5 125.6,71.5 125.8,71.9 99.9,124.9 129.9,124.9 129.9,124.9 155.8,71.9 
		141.8,105.2 151.3,124.9 181.3,124.9 155.8,71.9 	"/>
	<polygon points="60.2,90.8 52.9,76.2 21.4,73.3 47.2,124.9 	"/>
</g>
</svg>
